<svg xmlns="http://www.w3.org/2000/svg" viewBox="0 0 720 560" font-family="system-ui,Segoe UI,Roboto,sans-serif" role="img" aria-label="Mouth diagram with Universal (1-32) and FDI tooth numbers">
<rect width="100%" height="100%" fill="#ffffff"/>
<defs><radialGradient id="enamel" cx="50%" cy="33%" r="78%"><stop offset="0%" stop-color="#fffefa"/><stop offset="55%" stop-color="#f6f0e1"/><stop offset="100%" stop-color="#d8cdaf"/></radialGradient><radialGradient id="cusp" cx="50%" cy="50%" r="60%"><stop offset="0%" stop-color="#ffffff" stop-opacity="0.9"/><stop offset="100%" stop-color="#ffffff" stop-opacity="0"/></radialGradient><radialGradient id="gum" cx="50%" cy="30%" r="85%"><stop offset="0%" stop-color="#f8c2b9"/><stop offset="60%" stop-color="#efa39b"/><stop offset="100%" stop-color="#df8d86"/></radialGradient><radialGradient id="palate" cx="50%" cy="35%" r="75%"><stop offset="0%" stop-color="#f3aaa1"/><stop offset="100%" stop-color="#d98079"/></radialGradient><radialGradient id="tongue" cx="50%" cy="32%" r="80%"><stop offset="0%" stop-color="#e98e88"/><stop offset="100%" stop-color="#c4655f"/></radialGradient><radialGradient id="mucosa" cx="50%" cy="30%" r="90%"><stop offset="0%" stop-color="#e89991"/><stop offset="100%" stop-color="#cf7a73"/></radialGradient><filter id="tsh" x="-40%" y="-40%" width="180%" height="180%"><feDropShadow dx="0" dy="1.3" stdDeviation="1.2" flood-color="#7a4f47" flood-opacity="0.45"/></filter><filter id="psh" x="-25%" y="-25%" width="150%" height="150%"><feDropShadow dx="0" dy="3" stdDeviation="5" flood-color="#9c6258" flood-opacity="0.40"/></filter></defs>
<text x="360.0" y="26" text-anchor="middle" font-size="17" font-weight="700" fill="#0f3d3a">Tooth numbering &#8212; Universal (1&#8211;32) &amp; FDI</text>
<path d="M 97.0,240.0 L 97.8,224.2 L 100.2,208.6 L 104.3,193.1 L 109.9,177.9 L 117.0,163.1 L 125.7,148.7 L 135.8,135.0 L 147.2,121.9 L 160.0,109.5 L 174.0,97.9 L 189.2,87.2 L 205.4,77.4 L 222.6,68.6 L 240.6,60.9 L 259.4,54.3 L 278.7,48.8 L 298.6,44.6 L 318.9,41.5 L 339.4,39.6 L 360.0,39.0 L 380.6,39.6 L 401.1,41.5 L 421.4,44.6 L 441.3,48.8 L 460.6,54.3 L 479.4,60.9 L 497.4,68.6 L 514.6,77.4 L 530.8,87.2 L 546.0,97.9 L 560.0,109.5 L 572.8,121.9 L 584.2,135.0 L 594.3,148.7 L 603.0,163.1 L 610.1,177.9 L 615.7,193.1 L 619.8,208.6 L 622.2,224.2 L 623.0,240.0 L 402.5,240.0 L 402.3,241.5 L 402.0,243.1 L 401.3,244.6 L 400.4,246.0 L 399.2,247.5 L 397.8,248.9 L 396.2,250.2 L 394.4,251.5 L 392.3,252.7 L 390.0,253.8 L 387.6,254.8 L 385.0,255.8 L 382.2,256.6 L 379.3,257.4 L 376.3,258.0 L 373.1,258.6 L 369.9,259.0 L 366.6,259.3 L 363.3,259.5 L 360.0,259.5 L 356.7,259.5 L 353.4,259.3 L 350.1,259.0 L 346.9,258.6 L 343.7,258.0 L 340.7,257.4 L 337.8,256.6 L 335.0,255.8 L 332.4,254.8 L 330.0,253.8 L 327.7,252.7 L 325.6,251.5 L 323.8,250.2 L 322.2,248.9 L 320.8,247.5 L 319.6,246.0 L 318.7,244.6 L 318.0,243.1 L 317.7,241.5 L 317.5,240.0 Z" fill="url(#mucosa)" filter="url(#psh)"/><path d="M 106.0,240.0 L 106.8,224.9 L 109.1,210.0 L 113.0,195.2 L 118.4,180.7 L 125.3,166.5 L 133.7,152.8 L 143.4,139.7 L 154.5,127.1 L 166.9,115.3 L 180.4,104.2 L 195.0,94.0 L 210.7,84.7 L 227.3,76.3 L 244.7,68.9 L 262.8,62.6 L 281.5,57.4 L 300.7,53.3 L 320.3,50.4 L 340.1,48.6 L 360.0,48.0 L 379.9,48.6 L 399.7,50.4 L 419.3,53.3 L 438.5,57.4 L 457.2,62.6 L 475.3,68.9 L 492.7,76.3 L 509.3,84.7 L 525.0,94.0 L 539.6,104.2 L 553.1,115.3 L 565.5,127.1 L 576.6,139.7 L 586.3,152.8 L 594.7,166.5 L 601.6,180.7 L 607.0,195.2 L 610.9,210.0 L 613.2,224.9 L 614.0,240.0 L 416.6,240.0 L 416.5,240.4 L 415.9,240.8 L 415.1,241.3 L 413.9,241.7 L 412.3,242.1 L 410.5,242.4 L 408.3,242.8 L 405.8,243.2 L 403.1,243.5 L 400.1,243.8 L 396.8,244.1 L 393.3,244.3 L 389.6,244.6 L 385.7,244.8 L 381.7,245.0 L 377.5,245.1 L 373.2,245.2 L 368.9,245.3 L 364.4,245.3 L 360.0,245.4 L 355.6,245.3 L 351.1,245.3 L 346.8,245.2 L 342.5,245.1 L 338.3,245.0 L 334.3,244.8 L 330.4,244.6 L 326.7,244.3 L 323.2,244.1 L 319.9,243.8 L 316.9,243.5 L 314.2,243.2 L 311.7,242.8 L 309.5,242.4 L 307.7,242.1 L 306.1,241.7 L 304.9,241.3 L 304.1,240.8 L 303.5,240.4 L 303.4,240.0 Z" fill="url(#gum)" stroke="#d2918a" stroke-width="1.4" stroke-linejoin="round"/><polyline points="124.0,240.0 124.3,230.9 125.3,221.8 126.9,212.8 129.2,203.8 132.0,195.0 135.6,186.2 139.7,177.6 144.4,169.2 149.7,161.0 155.6,153.0 162.1,145.2 169.1,137.7 176.6,130.5 184.6,123.6 193.1,117.0 202.1,110.7 211.5,104.8 221.3,99.2 231.5,94.1 242.0,89.3 252.9,85.0 264.0,81.0 275.4,77.6 287.1,74.5 298.9,71.9 310.9,69.8 323.1,68.1 335.3,67.0 347.6,66.2 360.0,66.0 372.4,66.2 384.7,67.0 396.9,68.1 409.1,69.8 421.1,71.9 432.9,74.5 444.6,77.6 456.0,81.0 467.1,85.0 478.0,89.3 488.5,94.1 498.7,99.2 508.5,104.8 517.9,110.7 526.9,117.0 535.4,123.6 543.4,130.5 550.9,137.7 557.9,145.2 564.4,153.0 570.3,161.0 575.6,169.2 580.3,177.6 584.4,186.2 588.0,195.0 590.8,203.8 593.1,212.8 594.7,221.8 595.7,230.9 596.0,240.0" fill="none" stroke="#fbd3cb" stroke-width="13" stroke-linecap="round" stroke-linejoin="round" opacity="0.55"/><ellipse cx="360.0" cy="170.4" rx="94.4" ry="76.6" fill="url(#palate)"/><line x1="360.0" y1="116.8" x2="360.0" y2="224.0" stroke="#c8746d" stroke-width="1.3" opacity="0.6"/><path d="M 308.1,139.8 Q 360.0,132.8 411.9,139.8" fill="none" stroke="#cf7d76" stroke-width="1.1" opacity="0.5"/><path d="M 317.5,164.3 Q 360.0,157.3 402.5,164.3" fill="none" stroke="#cf7d76" stroke-width="1.1" opacity="0.5"/><path d="M 327.0,188.8 Q 360.0,181.8 393.0,188.8" fill="none" stroke="#cf7d76" stroke-width="1.1" opacity="0.5"/>
<path d="M 97.0,320.0 L 97.8,335.8 L 100.2,351.4 L 104.3,366.9 L 109.9,382.1 L 117.0,396.9 L 125.7,411.3 L 135.8,425.0 L 147.2,438.1 L 160.0,450.5 L 174.0,462.1 L 189.2,472.8 L 205.4,482.6 L 222.6,491.4 L 240.6,499.1 L 259.4,505.7 L 278.7,511.2 L 298.6,515.4 L 318.9,518.5 L 339.4,520.4 L 360.0,521.0 L 380.6,520.4 L 401.1,518.5 L 421.4,515.4 L 441.3,511.2 L 460.6,505.7 L 479.4,499.1 L 497.4,491.4 L 514.6,482.6 L 530.8,472.8 L 546.0,462.1 L 560.0,450.5 L 572.8,438.1 L 584.2,425.0 L 594.3,411.3 L 603.0,396.9 L 610.1,382.1 L 615.7,366.9 L 619.8,351.4 L 622.2,335.8 L 623.0,320.0 L 402.5,320.0 L 402.3,318.5 L 402.0,316.9 L 401.3,315.4 L 400.4,314.0 L 399.2,312.5 L 397.8,311.1 L 396.2,309.8 L 394.4,308.5 L 392.3,307.3 L 390.0,306.2 L 387.6,305.2 L 385.0,304.2 L 382.2,303.4 L 379.3,302.6 L 376.3,302.0 L 373.1,301.4 L 369.9,301.0 L 366.6,300.7 L 363.3,300.5 L 360.0,300.5 L 356.7,300.5 L 353.4,300.7 L 350.1,301.0 L 346.9,301.4 L 343.7,302.0 L 340.7,302.6 L 337.8,303.4 L 335.0,304.2 L 332.4,305.2 L 330.0,306.2 L 327.7,307.3 L 325.6,308.5 L 323.8,309.8 L 322.2,311.1 L 320.8,312.5 L 319.6,314.0 L 318.7,315.4 L 318.0,316.9 L 317.7,318.5 L 317.5,320.0 Z" fill="url(#mucosa)" filter="url(#psh)"/><path d="M 106.0,320.0 L 106.8,335.1 L 109.1,350.0 L 113.0,364.8 L 118.4,379.3 L 125.3,393.5 L 133.7,407.2 L 143.4,420.3 L 154.5,432.9 L 166.9,444.7 L 180.4,455.8 L 195.0,466.0 L 210.7,475.3 L 227.3,483.7 L 244.7,491.1 L 262.8,497.4 L 281.5,502.6 L 300.7,506.7 L 320.3,509.6 L 340.1,511.4 L 360.0,512.0 L 379.9,511.4 L 399.7,509.6 L 419.3,506.7 L 438.5,502.6 L 457.2,497.4 L 475.3,491.1 L 492.7,483.7 L 509.3,475.3 L 525.0,466.0 L 539.6,455.8 L 553.1,444.7 L 565.5,432.9 L 576.6,420.3 L 586.3,407.2 L 594.7,393.5 L 601.6,379.3 L 607.0,364.8 L 610.9,350.0 L 613.2,335.1 L 614.0,320.0 L 416.6,320.0 L 416.5,319.6 L 415.9,319.2 L 415.1,318.7 L 413.9,318.3 L 412.3,317.9 L 410.5,317.6 L 408.3,317.2 L 405.8,316.8 L 403.1,316.5 L 400.1,316.2 L 396.8,315.9 L 393.3,315.7 L 389.6,315.4 L 385.7,315.2 L 381.7,315.0 L 377.5,314.9 L 373.2,314.8 L 368.9,314.7 L 364.4,314.7 L 360.0,314.6 L 355.6,314.7 L 351.1,314.7 L 346.8,314.8 L 342.5,314.9 L 338.3,315.0 L 334.3,315.2 L 330.4,315.4 L 326.7,315.7 L 323.2,315.9 L 319.9,316.2 L 316.9,316.5 L 314.2,316.8 L 311.7,317.2 L 309.5,317.6 L 307.7,317.9 L 306.1,318.3 L 304.9,318.7 L 304.1,319.2 L 303.5,319.6 L 303.4,320.0 Z" fill="url(#gum)" stroke="#d2918a" stroke-width="1.4" stroke-linejoin="round"/><polyline points="124.0,320.0 124.3,329.1 125.3,338.2 126.9,347.2 129.2,356.2 132.0,365.0 135.6,373.8 139.7,382.4 144.4,390.8 149.7,399.0 155.6,407.0 162.1,414.8 169.1,422.3 176.6,429.5 184.6,436.4 193.1,443.0 202.1,449.3 211.5,455.2 221.3,460.8 231.5,465.9 242.0,470.7 252.9,475.0 264.0,479.0 275.4,482.4 287.1,485.5 298.9,488.1 310.9,490.2 323.1,491.9 335.3,493.0 347.6,493.8 360.0,494.0 372.4,493.8 384.7,493.0 396.9,491.9 409.1,490.2 421.1,488.1 432.9,485.5 444.6,482.4 456.0,479.0 467.1,475.0 478.0,470.7 488.5,465.9 498.7,460.8 508.5,455.2 517.9,449.3 526.9,443.0 535.4,436.4 543.4,429.5 550.9,422.3 557.9,414.8 564.4,407.0 570.3,399.0 575.6,390.8 580.3,382.4 584.4,373.8 588.0,365.0 590.8,356.2 593.1,347.2 594.7,338.2 595.7,329.1 596.0,320.0" fill="none" stroke="#fbd3cb" stroke-width="13" stroke-linecap="round" stroke-linejoin="round" opacity="0.55"/><ellipse cx="360.0" cy="389.6" rx="103.8" ry="83.5" fill="url(#tongue)"/><line x1="360.0" y1="329.5" x2="360.0" y2="435.5" stroke="#a8504a" stroke-width="1.6" opacity="0.55"/><ellipse cx="360.0" cy="362.9" rx="57.1" ry="25.1" fill="#ffffff" opacity="0.16"/>
<text x="360.0" y="216" text-anchor="middle" font-size="12" fill="#ffffff" opacity="0.92" letter-spacing="1">UPPER ARCH</text><text x="360.0" y="230" text-anchor="middle" font-size="9.5" fill="#ffffff" opacity="0.8">(maxillary)</text><text x="360.0" y="366" text-anchor="middle" font-size="12" fill="#ffffff" opacity="0.92" letter-spacing="1">LOWER ARCH</text><text x="360.0" y="380" text-anchor="middle" font-size="9.5" fill="#ffffff" opacity="0.8">(mandibular)</text><text x="78" y="96" text-anchor="middle" font-size="10.5" font-weight="600" fill="#62727b">Upper right</text><text x="642" y="96" text-anchor="middle" font-size="10.5" font-weight="600" fill="#62727b">Upper left</text><text x="78" y="476" text-anchor="middle" font-size="10.5" font-weight="600" fill="#62727b">Lower right</text><text x="642" y="476" text-anchor="middle" font-size="10.5" font-weight="600" fill="#62727b">Lower left</text>
<g transform="translate(125.3,221.7) rotate(-85.6)" filter="url(#tsh)"><rect x="-16.6" y="-11.7" width="33.1" height="23.4" rx="4.9" ry="4.9" fill="url(#enamel)" stroke="#b39d75" stroke-width="1.2"/><ellipse cx="0" cy="0" rx="8.3" ry="5.8" fill="#cdb586" opacity="0.45"/><path d="M 0,-8.4 L 0,8.4 M -11.9,0 L 11.9,0" fill="none" stroke="#bda572" stroke-width="1.1" stroke-linecap="round"/><ellipse cx="-7.6" cy="-5.4" rx="5.5" ry="3.9" fill="url(#cusp)"/><ellipse cx="-7.6" cy="5.4" rx="5.5" ry="3.9" fill="url(#cusp)"/><ellipse cx="7.6" cy="-5.4" rx="5.5" ry="3.9" fill="url(#cusp)"/><ellipse cx="7.6" cy="5.4" rx="5.5" ry="3.9" fill="url(#cusp)"/></g><circle cx="149.9" cy="223.7" r="9.6" fill="#efedf9" stroke="#bbb2df" stroke-width="1"/><ellipse cx="149.9" cy="220.7" rx="6.5" ry="3" fill="#ffffff" opacity="0.5"/><text x="149.9" y="227.1" text-anchor="middle" font-size="10.5" font-weight="700" fill="#3b3664">1</text><text x="101.7" y="222.9" text-anchor="middle" font-size="9" fill="#566a73" stroke="#ffffff" stroke-width="2.4" paint-order="stroke" stroke-linejoin="round">18</text>
<g transform="translate(136.1,185.0) rotate(-76.2)" filter="url(#tsh)"><rect x="-17.6" y="-12.3" width="35.1" height="24.5" rx="5.1" ry="5.1" fill="url(#enamel)" stroke="#b39d75" stroke-width="1.2"/><ellipse cx="0" cy="0" rx="8.8" ry="6.1" fill="#cdb586" opacity="0.45"/><path d="M 0,-8.8 L 0,8.8 M -12.6,0 L 12.6,0" fill="none" stroke="#bda572" stroke-width="1.1" stroke-linecap="round"/><ellipse cx="-8.1" cy="-5.6" rx="5.8" ry="4.0" fill="url(#cusp)"/><ellipse cx="-8.1" cy="5.6" rx="5.8" ry="4.0" fill="url(#cusp)"/><ellipse cx="8.1" cy="-5.6" rx="5.8" ry="4.0" fill="url(#cusp)"/><ellipse cx="8.1" cy="5.6" rx="5.8" ry="4.0" fill="url(#cusp)"/></g><circle cx="160.6" cy="191.0" r="9.6" fill="#efedf9" stroke="#bbb2df" stroke-width="1"/><ellipse cx="160.6" cy="188.0" rx="6.5" ry="3" fill="#ffffff" opacity="0.5"/><text x="160.6" y="194.4" text-anchor="middle" font-size="10.5" font-weight="700" fill="#3b3664">2</text><text x="112.5" y="182.2" text-anchor="middle" font-size="9" fill="#566a73" stroke="#ffffff" stroke-width="2.4" paint-order="stroke" stroke-linejoin="round">17</text>
<g transform="translate(159.6,148.1) rotate(-65.4)" filter="url(#tsh)"><rect x="-19.5" y="-12.3" width="39.0" height="24.5" rx="5.1" ry="5.1" fill="url(#enamel)" stroke="#b39d75" stroke-width="1.2"/><ellipse cx="0" cy="0" rx="9.8" ry="6.1" fill="#cdb586" opacity="0.45"/><path d="M 0,-8.8 L 0,8.8 M -14.0,0 L 14.0,0" fill="none" stroke="#bda572" stroke-width="1.1" stroke-linecap="round"/><ellipse cx="-9.0" cy="-5.6" rx="6.4" ry="4.0" fill="url(#cusp)"/><ellipse cx="-9.0" cy="5.6" rx="6.4" ry="4.0" fill="url(#cusp)"/><ellipse cx="9.0" cy="-5.6" rx="6.4" ry="4.0" fill="url(#cusp)"/><ellipse cx="9.0" cy="5.6" rx="6.4" ry="4.0" fill="url(#cusp)"/></g><circle cx="182.6" cy="158.6" r="9.6" fill="#efedf9" stroke="#bbb2df" stroke-width="1"/><ellipse cx="182.6" cy="155.6" rx="6.5" ry="3" fill="#ffffff" opacity="0.5"/><text x="182.6" y="162.0" text-anchor="middle" font-size="10.5" font-weight="700" fill="#3b3664">3</text><text x="137.6" y="141.0" text-anchor="middle" font-size="9" fill="#566a73" stroke="#ffffff" stroke-width="2.4" paint-order="stroke" stroke-linejoin="round">16</text>
<g transform="translate(189.0,120.0) rotate(-54.9)" filter="url(#tsh)"><ellipse cx="0" cy="0" rx="12.7" ry="10.8" fill="url(#enamel)" stroke="#b39d75" stroke-width="1.2"/><line x1="-7.0" y1="0" x2="7.0" y2="0" stroke="#bda572" stroke-width="1.1" stroke-linecap="round"/><ellipse cx="0" cy="-4.8" rx="6.6" ry="3.5" fill="url(#cusp)"/><ellipse cx="0" cy="4.8" rx="5.8" ry="3.2" fill="url(#cusp)"/></g><circle cx="208.6" cy="133.7" r="9.6" fill="#efedf9" stroke="#bbb2df" stroke-width="1"/><ellipse cx="208.6" cy="130.7" rx="6.5" ry="3" fill="#ffffff" opacity="0.5"/><text x="208.6" y="137.1" text-anchor="middle" font-size="10.5" font-weight="700" fill="#3b3664">4</text><text x="170.4" y="109.9" text-anchor="middle" font-size="9" fill="#566a73" stroke="#ffffff" stroke-width="2.4" paint-order="stroke" stroke-linejoin="round">15</text>
<g transform="translate(218.5,100.8) rotate(-45.5)" filter="url(#tsh)"><ellipse cx="0" cy="0" rx="13.7" ry="10.8" fill="url(#enamel)" stroke="#b39d75" stroke-width="1.2"/><line x1="-7.5" y1="0" x2="7.5" y2="0" stroke="#bda572" stroke-width="1.1" stroke-linecap="round"/><ellipse cx="0" cy="-4.8" rx="7.1" ry="3.5" fill="url(#cusp)"/><ellipse cx="0" cy="4.8" rx="6.3" ry="3.2" fill="url(#cusp)"/></g><circle cx="235.5" cy="117.5" r="9.6" fill="#efedf9" stroke="#bbb2df" stroke-width="1"/><ellipse cx="235.5" cy="114.5" rx="6.5" ry="3" fill="#ffffff" opacity="0.5"/><text x="235.5" y="120.9" text-anchor="middle" font-size="10.5" font-weight="700" fill="#3b3664">5</text><text x="202.2" y="87.8" text-anchor="middle" font-size="9" fill="#566a73" stroke="#ffffff" stroke-width="2.4" paint-order="stroke" stroke-linejoin="round">14</text>
<g transform="translate(254.4,84.4) rotate(-34.2)" filter="url(#tsh)"><polygon points="-14.6,7.8 14.6,7.8 13.2,-1.4 0,-12.4 -13.2,-1.4" fill="url(#enamel)" stroke="#b39d75" stroke-width="1.2" stroke-linejoin="round"/><polyline points="0,-7.7 0,4.6" fill="none" stroke="#bda572" stroke-width="1" opacity="0.5"/><ellipse cx="0" cy="-1.6" rx="6.1" ry="4.1" fill="url(#cusp)"/></g><circle cx="266.8" cy="102.7" r="9.6" fill="#efedf9" stroke="#bbb2df" stroke-width="1"/><ellipse cx="266.8" cy="99.7" rx="6.5" ry="3" fill="#ffffff" opacity="0.5"/><text x="266.8" y="106.1" text-anchor="middle" font-size="10.5" font-weight="700" fill="#3b3664">6</text><text x="242.6" y="69.9" text-anchor="middle" font-size="9" fill="#566a73" stroke="#ffffff" stroke-width="2.4" paint-order="stroke" stroke-linejoin="round">13</text>
<g transform="translate(292.4,73.3) rotate(-22.1)" filter="url(#tsh)"><rect x="-12.7" y="-6.3" width="25.3" height="12.5" rx="2" ry="2" fill="url(#enamel)" stroke="#b39d75" stroke-width="1.2"/><rect x="-10.4" y="-5.1" width="20.8" height="6.3" rx="1.5" fill="url(#cusp)"/><line x1="-8.9" y1="3.4" x2="8.9" y2="3.4" stroke="#bda572" stroke-width="0.9" opacity="0.6"/></g><circle cx="299.6" cy="91.2" r="9.6" fill="#efedf9" stroke="#bbb2df" stroke-width="1"/><ellipse cx="299.6" cy="88.2" rx="6.5" ry="3" fill="#ffffff" opacity="0.5"/><text x="299.6" y="94.6" text-anchor="middle" font-size="10.5" font-weight="700" fill="#3b3664">7</text><text x="285.5" y="59.4" text-anchor="middle" font-size="9" fill="#566a73" stroke="#ffffff" stroke-width="2.4" paint-order="stroke" stroke-linejoin="round">12</text>
<g transform="translate(335.2,67.0) rotate(-8.1)" filter="url(#tsh)"><rect x="-16.6" y="-6.6" width="33.1" height="13.1" rx="2" ry="2" fill="url(#enamel)" stroke="#b39d75" stroke-width="1.2"/><rect x="-13.6" y="-5.4" width="27.2" height="6.6" rx="1.5" fill="url(#cusp)"/><line x1="-11.6" y1="3.6" x2="11.6" y2="3.6" stroke="#bda572" stroke-width="0.9" opacity="0.6"/></g><circle cx="338.0" cy="86.3" r="9.6" fill="#efedf9" stroke="#bbb2df" stroke-width="1"/><ellipse cx="338.0" cy="83.3" rx="6.5" ry="3" fill="#ffffff" opacity="0.5"/><text x="338.0" y="89.7" text-anchor="middle" font-size="10.5" font-weight="700" fill="#3b3664">8</text><text x="332.6" y="51.6" text-anchor="middle" font-size="9" fill="#566a73" stroke="#ffffff" stroke-width="2.4" paint-order="stroke" stroke-linejoin="round">11</text>
<g transform="translate(384.8,67.0) rotate(8.1)" filter="url(#tsh)"><rect x="-16.6" y="-6.6" width="33.1" height="13.1" rx="2" ry="2" fill="url(#enamel)" stroke="#b39d75" stroke-width="1.2"/><rect x="-13.6" y="-5.4" width="27.2" height="6.6" rx="1.5" fill="url(#cusp)"/><line x1="-11.6" y1="3.6" x2="11.6" y2="3.6" stroke="#bda572" stroke-width="0.9" opacity="0.6"/></g><circle cx="382.0" cy="86.3" r="9.6" fill="#efedf9" stroke="#bbb2df" stroke-width="1"/><ellipse cx="382.0" cy="83.3" rx="6.5" ry="3" fill="#ffffff" opacity="0.5"/><text x="382.0" y="89.7" text-anchor="middle" font-size="10.5" font-weight="700" fill="#3b3664">9</text><text x="387.4" y="51.6" text-anchor="middle" font-size="9" fill="#566a73" stroke="#ffffff" stroke-width="2.4" paint-order="stroke" stroke-linejoin="round">21</text>
<g transform="translate(427.6,73.3) rotate(22.1)" filter="url(#tsh)"><rect x="-12.7" y="-6.3" width="25.3" height="12.5" rx="2" ry="2" fill="url(#enamel)" stroke="#b39d75" stroke-width="1.2"/><rect x="-10.4" y="-5.1" width="20.8" height="6.3" rx="1.5" fill="url(#cusp)"/><line x1="-8.9" y1="3.4" x2="8.9" y2="3.4" stroke="#bda572" stroke-width="0.9" opacity="0.6"/></g><circle cx="420.4" cy="91.2" r="9.6" fill="#efedf9" stroke="#bbb2df" stroke-width="1"/><ellipse cx="420.4" cy="88.2" rx="6.5" ry="3" fill="#ffffff" opacity="0.5"/><text x="420.4" y="94.6" text-anchor="middle" font-size="10.5" font-weight="700" fill="#3b3664">10</text><text x="434.5" y="59.4" text-anchor="middle" font-size="9" fill="#566a73" stroke="#ffffff" stroke-width="2.4" paint-order="stroke" stroke-linejoin="round">22</text>
<g transform="translate(465.6,84.4) rotate(34.2)" filter="url(#tsh)"><polygon points="-14.6,7.8 14.6,7.8 13.2,-1.4 0,-12.4 -13.2,-1.4" fill="url(#enamel)" stroke="#b39d75" stroke-width="1.2" stroke-linejoin="round"/><polyline points="0,-7.7 0,4.6" fill="none" stroke="#bda572" stroke-width="1" opacity="0.5"/><ellipse cx="0" cy="-1.6" rx="6.1" ry="4.1" fill="url(#cusp)"/></g><circle cx="453.2" cy="102.7" r="9.6" fill="#efedf9" stroke="#bbb2df" stroke-width="1"/><ellipse cx="453.2" cy="99.7" rx="6.5" ry="3" fill="#ffffff" opacity="0.5"/><text x="453.2" y="106.1" text-anchor="middle" font-size="10.5" font-weight="700" fill="#3b3664">11</text><text x="477.4" y="69.9" text-anchor="middle" font-size="9" fill="#566a73" stroke="#ffffff" stroke-width="2.4" paint-order="stroke" stroke-linejoin="round">23</text>
<g transform="translate(501.5,100.8) rotate(45.5)" filter="url(#tsh)"><ellipse cx="0" cy="0" rx="13.7" ry="10.8" fill="url(#enamel)" stroke="#b39d75" stroke-width="1.2"/><line x1="-7.5" y1="0" x2="7.5" y2="0" stroke="#bda572" stroke-width="1.1" stroke-linecap="round"/><ellipse cx="0" cy="-4.8" rx="7.1" ry="3.5" fill="url(#cusp)"/><ellipse cx="0" cy="4.8" rx="6.3" ry="3.2" fill="url(#cusp)"/></g><circle cx="484.5" cy="117.5" r="9.6" fill="#efedf9" stroke="#bbb2df" stroke-width="1"/><ellipse cx="484.5" cy="114.5" rx="6.5" ry="3" fill="#ffffff" opacity="0.5"/><text x="484.5" y="120.9" text-anchor="middle" font-size="10.5" font-weight="700" fill="#3b3664">12</text><text x="517.8" y="87.8" text-anchor="middle" font-size="9" fill="#566a73" stroke="#ffffff" stroke-width="2.4" paint-order="stroke" stroke-linejoin="round">24</text>
<g transform="translate(531.0,120.0) rotate(54.9)" filter="url(#tsh)"><ellipse cx="0" cy="0" rx="12.7" ry="10.8" fill="url(#enamel)" stroke="#b39d75" stroke-width="1.2"/><line x1="-7.0" y1="0" x2="7.0" y2="0" stroke="#bda572" stroke-width="1.1" stroke-linecap="round"/><ellipse cx="0" cy="-4.8" rx="6.6" ry="3.5" fill="url(#cusp)"/><ellipse cx="0" cy="4.8" rx="5.8" ry="3.2" fill="url(#cusp)"/></g><circle cx="511.4" cy="133.7" r="9.6" fill="#efedf9" stroke="#bbb2df" stroke-width="1"/><ellipse cx="511.4" cy="130.7" rx="6.5" ry="3" fill="#ffffff" opacity="0.5"/><text x="511.4" y="137.1" text-anchor="middle" font-size="10.5" font-weight="700" fill="#3b3664">13</text><text x="549.6" y="109.9" text-anchor="middle" font-size="9" fill="#566a73" stroke="#ffffff" stroke-width="2.4" paint-order="stroke" stroke-linejoin="round">25</text>
<g transform="translate(560.4,148.1) rotate(65.4)" filter="url(#tsh)"><rect x="-19.5" y="-12.3" width="39.0" height="24.5" rx="5.1" ry="5.1" fill="url(#enamel)" stroke="#b39d75" stroke-width="1.2"/><ellipse cx="0" cy="0" rx="9.8" ry="6.1" fill="#cdb586" opacity="0.45"/><path d="M 0,-8.8 L 0,8.8 M -14.0,0 L 14.0,0" fill="none" stroke="#bda572" stroke-width="1.1" stroke-linecap="round"/><ellipse cx="-9.0" cy="-5.6" rx="6.4" ry="4.0" fill="url(#cusp)"/><ellipse cx="-9.0" cy="5.6" rx="6.4" ry="4.0" fill="url(#cusp)"/><ellipse cx="9.0" cy="-5.6" rx="6.4" ry="4.0" fill="url(#cusp)"/><ellipse cx="9.0" cy="5.6" rx="6.4" ry="4.0" fill="url(#cusp)"/></g><circle cx="537.4" cy="158.6" r="9.6" fill="#efedf9" stroke="#bbb2df" stroke-width="1"/><ellipse cx="537.4" cy="155.6" rx="6.5" ry="3" fill="#ffffff" opacity="0.5"/><text x="537.4" y="162.0" text-anchor="middle" font-size="10.5" font-weight="700" fill="#3b3664">14</text><text x="582.4" y="141.0" text-anchor="middle" font-size="9" fill="#566a73" stroke="#ffffff" stroke-width="2.4" paint-order="stroke" stroke-linejoin="round">26</text>
<g transform="translate(583.9,185.0) rotate(76.2)" filter="url(#tsh)"><rect x="-17.6" y="-12.3" width="35.1" height="24.5" rx="5.1" ry="5.1" fill="url(#enamel)" stroke="#b39d75" stroke-width="1.2"/><ellipse cx="0" cy="0" rx="8.8" ry="6.1" fill="#cdb586" opacity="0.45"/><path d="M 0,-8.8 L 0,8.8 M -12.6,0 L 12.6,0" fill="none" stroke="#bda572" stroke-width="1.1" stroke-linecap="round"/><ellipse cx="-8.1" cy="-5.6" rx="5.8" ry="4.0" fill="url(#cusp)"/><ellipse cx="-8.1" cy="5.6" rx="5.8" ry="4.0" fill="url(#cusp)"/><ellipse cx="8.1" cy="-5.6" rx="5.8" ry="4.0" fill="url(#cusp)"/><ellipse cx="8.1" cy="5.6" rx="5.8" ry="4.0" fill="url(#cusp)"/></g><circle cx="559.4" cy="191.0" r="9.6" fill="#efedf9" stroke="#bbb2df" stroke-width="1"/><ellipse cx="559.4" cy="188.0" rx="6.5" ry="3" fill="#ffffff" opacity="0.5"/><text x="559.4" y="194.4" text-anchor="middle" font-size="10.5" font-weight="700" fill="#3b3664">15</text><text x="607.5" y="182.2" text-anchor="middle" font-size="9" fill="#566a73" stroke="#ffffff" stroke-width="2.4" paint-order="stroke" stroke-linejoin="round">27</text>
<g transform="translate(594.7,221.7) rotate(85.6)" filter="url(#tsh)"><rect x="-16.6" y="-11.7" width="33.1" height="23.4" rx="4.9" ry="4.9" fill="url(#enamel)" stroke="#b39d75" stroke-width="1.2"/><ellipse cx="0" cy="0" rx="8.3" ry="5.8" fill="#cdb586" opacity="0.45"/><path d="M 0,-8.4 L 0,8.4 M -11.9,0 L 11.9,0" fill="none" stroke="#bda572" stroke-width="1.1" stroke-linecap="round"/><ellipse cx="-7.6" cy="-5.4" rx="5.5" ry="3.9" fill="url(#cusp)"/><ellipse cx="-7.6" cy="5.4" rx="5.5" ry="3.9" fill="url(#cusp)"/><ellipse cx="7.6" cy="-5.4" rx="5.5" ry="3.9" fill="url(#cusp)"/><ellipse cx="7.6" cy="5.4" rx="5.5" ry="3.9" fill="url(#cusp)"/></g><circle cx="570.1" cy="223.7" r="9.6" fill="#efedf9" stroke="#bbb2df" stroke-width="1"/><ellipse cx="570.1" cy="220.7" rx="6.5" ry="3" fill="#ffffff" opacity="0.5"/><text x="570.1" y="227.1" text-anchor="middle" font-size="10.5" font-weight="700" fill="#3b3664">16</text><text x="618.3" y="222.9" text-anchor="middle" font-size="9" fill="#566a73" stroke="#ffffff" stroke-width="2.4" paint-order="stroke" stroke-linejoin="round">28</text>
<g transform="translate(125.7,340.7) rotate(-95.1)" filter="url(#tsh)"><rect x="-18.5" y="-12.3" width="37.0" height="24.5" rx="5.1" ry="5.1" fill="url(#enamel)" stroke="#b39d75" stroke-width="1.2"/><ellipse cx="0" cy="0" rx="9.3" ry="6.1" fill="#cdb586" opacity="0.45"/><path d="M 0,-8.8 L 0,8.8 M -13.3,0 L 13.3,0" fill="none" stroke="#bda572" stroke-width="1.1" stroke-linecap="round"/><ellipse cx="-8.5" cy="-5.6" rx="6.1" ry="4.0" fill="url(#cusp)"/><ellipse cx="-8.5" cy="5.6" rx="6.1" ry="4.0" fill="url(#cusp)"/><ellipse cx="8.5" cy="-5.6" rx="6.1" ry="4.0" fill="url(#cusp)"/><ellipse cx="8.5" cy="5.6" rx="6.1" ry="4.0" fill="url(#cusp)"/></g><circle cx="150.8" cy="338.5" r="9.6" fill="#efedf9" stroke="#bbb2df" stroke-width="1"/><ellipse cx="150.8" cy="335.5" rx="6.5" ry="3" fill="#ffffff" opacity="0.5"/><text x="150.8" y="341.9" text-anchor="middle" font-size="10.5" font-weight="700" fill="#3b3664">32</text><text x="101.5" y="345.9" text-anchor="middle" font-size="9" fill="#566a73" stroke="#ffffff" stroke-width="2.4" paint-order="stroke" stroke-linejoin="round">48</text>
<g transform="translate(140.0,383.0) rotate(-106.0)" filter="url(#tsh)"><rect x="-20.5" y="-12.8" width="40.9" height="25.7" rx="5.4" ry="5.4" fill="url(#enamel)" stroke="#b39d75" stroke-width="1.2"/><ellipse cx="0" cy="0" rx="10.2" ry="6.4" fill="#cdb586" opacity="0.45"/><path d="M 0,-9.2 L 0,9.2 M -14.7,0 L 14.7,0" fill="none" stroke="#bda572" stroke-width="1.1" stroke-linecap="round"/><ellipse cx="-9.4" cy="-5.9" rx="6.8" ry="4.2" fill="url(#cusp)"/><ellipse cx="-9.4" cy="5.9" rx="6.8" ry="4.2" fill="url(#cusp)"/><ellipse cx="9.4" cy="-5.9" rx="6.8" ry="4.2" fill="url(#cusp)"/><ellipse cx="9.4" cy="5.9" rx="6.8" ry="4.2" fill="url(#cusp)"/></g><circle cx="164.9" cy="375.9" r="9.6" fill="#efedf9" stroke="#bbb2df" stroke-width="1"/><ellipse cx="164.9" cy="372.9" rx="6.5" ry="3" fill="#ffffff" opacity="0.5"/><text x="164.9" y="379.3" text-anchor="middle" font-size="10.5" font-weight="700" fill="#3b3664">31</text><text x="116.2" y="392.9" text-anchor="middle" font-size="9" fill="#566a73" stroke="#ffffff" stroke-width="2.4" paint-order="stroke" stroke-linejoin="round">47</text>
<g transform="translate(170.8,424.0) rotate(-118.8)" filter="url(#tsh)"><rect x="-21.4" y="-13.1" width="42.9" height="26.2" rx="5.5" ry="5.5" fill="url(#enamel)" stroke="#b39d75" stroke-width="1.2"/><ellipse cx="0" cy="0" rx="10.7" ry="6.6" fill="#cdb586" opacity="0.45"/><path d="M 0,-9.4 L 0,9.4 M -15.4,0 L 15.4,0" fill="none" stroke="#bda572" stroke-width="1.1" stroke-linecap="round"/><ellipse cx="-9.9" cy="-6.0" rx="7.1" ry="4.3" fill="url(#cusp)"/><ellipse cx="-9.9" cy="6.0" rx="7.1" ry="4.3" fill="url(#cusp)"/><ellipse cx="9.9" cy="-6.0" rx="7.1" ry="4.3" fill="url(#cusp)"/><ellipse cx="9.9" cy="6.0" rx="7.1" ry="4.3" fill="url(#cusp)"/></g><circle cx="193.7" cy="411.5" r="9.6" fill="#efedf9" stroke="#bbb2df" stroke-width="1"/><ellipse cx="193.7" cy="408.5" rx="6.5" ry="3" fill="#ffffff" opacity="0.5"/><text x="193.7" y="414.9" text-anchor="middle" font-size="10.5" font-weight="700" fill="#3b3664">30</text><text x="148.8" y="439.1" text-anchor="middle" font-size="9" fill="#566a73" stroke="#ffffff" stroke-width="2.4" paint-order="stroke" stroke-linejoin="round">46</text>
<g transform="translate(207.3,452.7) rotate(-131.0)" filter="url(#tsh)"><ellipse cx="0" cy="0" rx="13.7" ry="9.7" fill="url(#enamel)" stroke="#b39d75" stroke-width="1.2"/><line x1="-7.5" y1="0" x2="7.5" y2="0" stroke="#bda572" stroke-width="1.1" stroke-linecap="round"/><ellipse cx="0" cy="-4.3" rx="7.1" ry="3.1" fill="url(#cusp)"/><ellipse cx="0" cy="4.3" rx="6.3" ry="2.9" fill="url(#cusp)"/></g><circle cx="224.4" cy="437.8" r="9.6" fill="#efedf9" stroke="#bbb2df" stroke-width="1"/><ellipse cx="224.4" cy="434.8" rx="6.5" ry="3" fill="#ffffff" opacity="0.5"/><text x="224.4" y="441.2" text-anchor="middle" font-size="10.5" font-weight="700" fill="#3b3664">29</text><text x="190.9" y="469.9" text-anchor="middle" font-size="9" fill="#566a73" stroke="#ffffff" stroke-width="2.4" paint-order="stroke" stroke-linejoin="round">45</text>
<g transform="translate(241.1,470.3) rotate(-141.7)" filter="url(#tsh)"><ellipse cx="0" cy="0" rx="13.7" ry="9.7" fill="url(#enamel)" stroke="#b39d75" stroke-width="1.2"/><line x1="-7.5" y1="0" x2="7.5" y2="0" stroke="#bda572" stroke-width="1.1" stroke-linecap="round"/><ellipse cx="0" cy="-4.3" rx="7.1" ry="3.1" fill="url(#cusp)"/><ellipse cx="0" cy="4.3" rx="6.3" ry="2.9" fill="url(#cusp)"/></g><circle cx="255.2" cy="452.5" r="9.6" fill="#efedf9" stroke="#bbb2df" stroke-width="1"/><ellipse cx="255.2" cy="449.5" rx="6.5" ry="3" fill="#ffffff" opacity="0.5"/><text x="255.2" y="455.9" text-anchor="middle" font-size="10.5" font-weight="700" fill="#3b3664">28</text><text x="227.7" y="490.3" text-anchor="middle" font-size="9" fill="#566a73" stroke="#ffffff" stroke-width="2.4" paint-order="stroke" stroke-linejoin="round">44</text>
<g transform="translate(278.7,483.3) rotate(-153.5)" filter="url(#tsh)"><polygon points="-13.7,7.3 13.7,7.3 12.3,-1.3 0,-11.6 -12.3,-1.3" fill="url(#enamel)" stroke="#b39d75" stroke-width="1.2" stroke-linejoin="round"/><polyline points="0,-7.2 0,4.3" fill="none" stroke="#bda572" stroke-width="1" opacity="0.5"/><ellipse cx="0" cy="-1.5" rx="5.7" ry="3.8" fill="url(#cusp)"/></g><circle cx="288.3" cy="464.0" r="9.6" fill="#efedf9" stroke="#bbb2df" stroke-width="1"/><ellipse cx="288.3" cy="461.0" rx="6.5" ry="3" fill="#ffffff" opacity="0.5"/><text x="288.3" y="467.4" text-anchor="middle" font-size="10.5" font-weight="700" fill="#3b3664">27</text><text x="269.5" y="504.7" text-anchor="middle" font-size="9" fill="#566a73" stroke="#ffffff" stroke-width="2.4" paint-order="stroke" stroke-linejoin="round">43</text>
<g transform="translate(314.3,490.7) rotate(-165.0)" filter="url(#tsh)"><rect x="-10.7" y="-6.0" width="21.4" height="12.0" rx="2" ry="2" fill="url(#enamel)" stroke="#b39d75" stroke-width="1.2"/><rect x="-8.8" y="-4.9" width="17.6" height="6.0" rx="1.5" fill="url(#cusp)"/><line x1="-7.5" y1="3.3" x2="7.5" y2="3.3" stroke="#bda572" stroke-width="0.9" opacity="0.6"/></g><circle cx="319.2" cy="472.4" r="9.6" fill="#efedf9" stroke="#bbb2df" stroke-width="1"/><ellipse cx="319.2" cy="469.4" rx="6.5" ry="3" fill="#ffffff" opacity="0.5"/><text x="319.2" y="475.8" text-anchor="middle" font-size="10.5" font-weight="700" fill="#3b3664">26</text><text x="309.7" y="511.1" text-anchor="middle" font-size="9" fill="#566a73" stroke="#ffffff" stroke-width="2.4" paint-order="stroke" stroke-linejoin="round">42</text>
<g transform="translate(345.2,493.7) rotate(-175.1)" filter="url(#tsh)"><rect x="-9.8" y="-5.7" width="19.5" height="11.4" rx="2" ry="2" fill="url(#enamel)" stroke="#b39d75" stroke-width="1.2"/><rect x="-8.0" y="-4.7" width="16.0" height="5.7" rx="1.5" fill="url(#cusp)"/><line x1="-6.8" y1="3.1" x2="6.8" y2="3.1" stroke="#bda572" stroke-width="0.9" opacity="0.6"/></g><circle cx="346.8" cy="475.0" r="9.6" fill="#efedf9" stroke="#bbb2df" stroke-width="1"/><ellipse cx="346.8" cy="472.0" rx="6.5" ry="3" fill="#ffffff" opacity="0.5"/><text x="346.8" y="478.4" text-anchor="middle" font-size="10.5" font-weight="700" fill="#3b3664">25</text><text x="343.7" y="514.3" text-anchor="middle" font-size="9" fill="#566a73" stroke="#ffffff" stroke-width="2.4" paint-order="stroke" stroke-linejoin="round">41</text>
<g transform="translate(374.8,493.7) rotate(175.1)" filter="url(#tsh)"><rect x="-9.8" y="-5.7" width="19.5" height="11.4" rx="2" ry="2" fill="url(#enamel)" stroke="#b39d75" stroke-width="1.2"/><rect x="-8.0" y="-4.7" width="16.0" height="5.7" rx="1.5" fill="url(#cusp)"/><line x1="-6.8" y1="3.1" x2="6.8" y2="3.1" stroke="#bda572" stroke-width="0.9" opacity="0.6"/></g><circle cx="373.2" cy="475.0" r="9.6" fill="#efedf9" stroke="#bbb2df" stroke-width="1"/><ellipse cx="373.2" cy="472.0" rx="6.5" ry="3" fill="#ffffff" opacity="0.5"/><text x="373.2" y="478.4" text-anchor="middle" font-size="10.5" font-weight="700" fill="#3b3664">24</text><text x="376.3" y="514.3" text-anchor="middle" font-size="9" fill="#566a73" stroke="#ffffff" stroke-width="2.4" paint-order="stroke" stroke-linejoin="round">31</text>
<g transform="translate(405.7,490.7) rotate(165.0)" filter="url(#tsh)"><rect x="-10.7" y="-6.0" width="21.4" height="12.0" rx="2" ry="2" fill="url(#enamel)" stroke="#b39d75" stroke-width="1.2"/><rect x="-8.8" y="-4.9" width="17.6" height="6.0" rx="1.5" fill="url(#cusp)"/><line x1="-7.5" y1="3.3" x2="7.5" y2="3.3" stroke="#bda572" stroke-width="0.9" opacity="0.6"/></g><circle cx="400.8" cy="472.4" r="9.6" fill="#efedf9" stroke="#bbb2df" stroke-width="1"/><ellipse cx="400.8" cy="469.4" rx="6.5" ry="3" fill="#ffffff" opacity="0.5"/><text x="400.8" y="475.8" text-anchor="middle" font-size="10.5" font-weight="700" fill="#3b3664">23</text><text x="410.3" y="511.1" text-anchor="middle" font-size="9" fill="#566a73" stroke="#ffffff" stroke-width="2.4" paint-order="stroke" stroke-linejoin="round">32</text>
<g transform="translate(441.3,483.3) rotate(153.5)" filter="url(#tsh)"><polygon points="-13.7,7.3 13.7,7.3 12.3,-1.3 0,-11.6 -12.3,-1.3" fill="url(#enamel)" stroke="#b39d75" stroke-width="1.2" stroke-linejoin="round"/><polyline points="0,-7.2 0,4.3" fill="none" stroke="#bda572" stroke-width="1" opacity="0.5"/><ellipse cx="0" cy="-1.5" rx="5.7" ry="3.8" fill="url(#cusp)"/></g><circle cx="431.7" cy="464.0" r="9.6" fill="#efedf9" stroke="#bbb2df" stroke-width="1"/><ellipse cx="431.7" cy="461.0" rx="6.5" ry="3" fill="#ffffff" opacity="0.5"/><text x="431.7" y="467.4" text-anchor="middle" font-size="10.5" font-weight="700" fill="#3b3664">22</text><text x="450.5" y="504.7" text-anchor="middle" font-size="9" fill="#566a73" stroke="#ffffff" stroke-width="2.4" paint-order="stroke" stroke-linejoin="round">33</text>
<g transform="translate(478.9,470.3) rotate(141.7)" filter="url(#tsh)"><ellipse cx="0" cy="0" rx="13.7" ry="9.7" fill="url(#enamel)" stroke="#b39d75" stroke-width="1.2"/><line x1="-7.5" y1="0" x2="7.5" y2="0" stroke="#bda572" stroke-width="1.1" stroke-linecap="round"/><ellipse cx="0" cy="-4.3" rx="7.1" ry="3.1" fill="url(#cusp)"/><ellipse cx="0" cy="4.3" rx="6.3" ry="2.9" fill="url(#cusp)"/></g><circle cx="464.8" cy="452.5" r="9.6" fill="#efedf9" stroke="#bbb2df" stroke-width="1"/><ellipse cx="464.8" cy="449.5" rx="6.5" ry="3" fill="#ffffff" opacity="0.5"/><text x="464.8" y="455.9" text-anchor="middle" font-size="10.5" font-weight="700" fill="#3b3664">21</text><text x="492.3" y="490.3" text-anchor="middle" font-size="9" fill="#566a73" stroke="#ffffff" stroke-width="2.4" paint-order="stroke" stroke-linejoin="round">34</text>
<g transform="translate(512.7,452.7) rotate(131.0)" filter="url(#tsh)"><ellipse cx="0" cy="0" rx="13.7" ry="9.7" fill="url(#enamel)" stroke="#b39d75" stroke-width="1.2"/><line x1="-7.5" y1="0" x2="7.5" y2="0" stroke="#bda572" stroke-width="1.1" stroke-linecap="round"/><ellipse cx="0" cy="-4.3" rx="7.1" ry="3.1" fill="url(#cusp)"/><ellipse cx="0" cy="4.3" rx="6.3" ry="2.9" fill="url(#cusp)"/></g><circle cx="495.6" cy="437.8" r="9.6" fill="#efedf9" stroke="#bbb2df" stroke-width="1"/><ellipse cx="495.6" cy="434.8" rx="6.5" ry="3" fill="#ffffff" opacity="0.5"/><text x="495.6" y="441.2" text-anchor="middle" font-size="10.5" font-weight="700" fill="#3b3664">20</text><text x="529.1" y="469.9" text-anchor="middle" font-size="9" fill="#566a73" stroke="#ffffff" stroke-width="2.4" paint-order="stroke" stroke-linejoin="round">35</text>
<g transform="translate(549.2,424.0) rotate(118.8)" filter="url(#tsh)"><rect x="-21.4" y="-13.1" width="42.9" height="26.2" rx="5.5" ry="5.5" fill="url(#enamel)" stroke="#b39d75" stroke-width="1.2"/><ellipse cx="0" cy="0" rx="10.7" ry="6.6" fill="#cdb586" opacity="0.45"/><path d="M 0,-9.4 L 0,9.4 M -15.4,0 L 15.4,0" fill="none" stroke="#bda572" stroke-width="1.1" stroke-linecap="round"/><ellipse cx="-9.9" cy="-6.0" rx="7.1" ry="4.3" fill="url(#cusp)"/><ellipse cx="-9.9" cy="6.0" rx="7.1" ry="4.3" fill="url(#cusp)"/><ellipse cx="9.9" cy="-6.0" rx="7.1" ry="4.3" fill="url(#cusp)"/><ellipse cx="9.9" cy="6.0" rx="7.1" ry="4.3" fill="url(#cusp)"/></g><circle cx="526.3" cy="411.5" r="9.6" fill="#efedf9" stroke="#bbb2df" stroke-width="1"/><ellipse cx="526.3" cy="408.5" rx="6.5" ry="3" fill="#ffffff" opacity="0.5"/><text x="526.3" y="414.9" text-anchor="middle" font-size="10.5" font-weight="700" fill="#3b3664">19</text><text x="571.2" y="439.1" text-anchor="middle" font-size="9" fill="#566a73" stroke="#ffffff" stroke-width="2.4" paint-order="stroke" stroke-linejoin="round">36</text>
<g transform="translate(580.0,383.0) rotate(106.0)" filter="url(#tsh)"><rect x="-20.5" y="-12.8" width="40.9" height="25.7" rx="5.4" ry="5.4" fill="url(#enamel)" stroke="#b39d75" stroke-width="1.2"/><ellipse cx="0" cy="0" rx="10.2" ry="6.4" fill="#cdb586" opacity="0.45"/><path d="M 0,-9.2 L 0,9.2 M -14.7,0 L 14.7,0" fill="none" stroke="#bda572" stroke-width="1.1" stroke-linecap="round"/><ellipse cx="-9.4" cy="-5.9" rx="6.8" ry="4.2" fill="url(#cusp)"/><ellipse cx="-9.4" cy="5.9" rx="6.8" ry="4.2" fill="url(#cusp)"/><ellipse cx="9.4" cy="-5.9" rx="6.8" ry="4.2" fill="url(#cusp)"/><ellipse cx="9.4" cy="5.9" rx="6.8" ry="4.2" fill="url(#cusp)"/></g><circle cx="555.1" cy="375.9" r="9.6" fill="#efedf9" stroke="#bbb2df" stroke-width="1"/><ellipse cx="555.1" cy="372.9" rx="6.5" ry="3" fill="#ffffff" opacity="0.5"/><text x="555.1" y="379.3" text-anchor="middle" font-size="10.5" font-weight="700" fill="#3b3664">18</text><text x="603.8" y="392.9" text-anchor="middle" font-size="9" fill="#566a73" stroke="#ffffff" stroke-width="2.4" paint-order="stroke" stroke-linejoin="round">37</text>
<g transform="translate(594.3,340.7) rotate(95.1)" filter="url(#tsh)"><rect x="-18.5" y="-12.3" width="37.0" height="24.5" rx="5.1" ry="5.1" fill="url(#enamel)" stroke="#b39d75" stroke-width="1.2"/><ellipse cx="0" cy="0" rx="9.3" ry="6.1" fill="#cdb586" opacity="0.45"/><path d="M 0,-8.8 L 0,8.8 M -13.3,0 L 13.3,0" fill="none" stroke="#bda572" stroke-width="1.1" stroke-linecap="round"/><ellipse cx="-8.5" cy="-5.6" rx="6.1" ry="4.0" fill="url(#cusp)"/><ellipse cx="-8.5" cy="5.6" rx="6.1" ry="4.0" fill="url(#cusp)"/><ellipse cx="8.5" cy="-5.6" rx="6.1" ry="4.0" fill="url(#cusp)"/><ellipse cx="8.5" cy="5.6" rx="6.1" ry="4.0" fill="url(#cusp)"/></g><circle cx="569.2" cy="338.5" r="9.6" fill="#efedf9" stroke="#bbb2df" stroke-width="1"/><ellipse cx="569.2" cy="335.5" rx="6.5" ry="3" fill="#ffffff" opacity="0.5"/><text x="569.2" y="341.9" text-anchor="middle" font-size="10.5" font-weight="700" fill="#3b3664">17</text><text x="618.5" y="345.9" text-anchor="middle" font-size="9" fill="#566a73" stroke="#ffffff" stroke-width="2.4" paint-order="stroke" stroke-linejoin="round">38</text>
<text x="360.0" y="536" text-anchor="middle" font-size="11" fill="#13343b"><tspan font-weight="700">Circled number</tspan> = Universal (US 1&#8211;32) &#183; <tspan font-weight="700">small number</tspan> = FDI (used by this app)</text><text x="360.0" y="551" text-anchor="middle" font-size="10" fill="#62727b">Patient's view: their right side is on your left. FDI = quadrant digit (1 UR &#183; 2 UL &#183; 3 LL &#183; 4 LR) + tooth from midline (1 front &#8594; 8 back).</text>
</svg>
