<svg xmlns="http://www.w3.org/2000/svg" viewBox="0 0 720 520" font-family="system-ui,Segoe UI,Roboto,sans-serif" role="img" aria-label="Mouth diagram with FDI tooth numbers, upper and lower arches">
<rect width="100%" height="100%" fill="#ffffff"/>
<text x="360.0" y="30" text-anchor="middle" font-size="18" font-weight="700" fill="#0f3d3a">FDI tooth numbering</text>
<ellipse cx="360.0" cy="275" rx="320" ry="205" fill="#f5cdc6" stroke="#d99b90" stroke-width="2"/>
<ellipse cx="360.0" cy="285" rx="270" ry="160" fill="#7a2e2e"/>
<ellipse cx="360.0" cy="370" rx="170" ry="78" fill="#c4636b"/>
<text x="150" y="250" text-anchor="middle" font-size="11" font-weight="600" fill="#0f766e" opacity="0.0">Q1 upper right</text>
<text x="570" y="250" text-anchor="middle" font-size="11" font-weight="600" fill="#0f766e" opacity="0.0">Q2 upper left</text>
<text x="150" y="300" text-anchor="middle" font-size="11" font-weight="600" fill="#0f766e" opacity="0.0">Q4 lower right</text>
<text x="570" y="300" text-anchor="middle" font-size="11" font-weight="600" fill="#0f766e" opacity="0.0">Q3 lower left</text>
<g><rect x="98.8" y="183.7" width="30" height="30" rx="7" ry="9" fill="#e6eef0" stroke="#9bb3bb" stroke-width="1.3"/><text x="113.8" y="202.7" text-anchor="middle" font-size="10.5" font-weight="600" fill="#13343b">18</text></g>
<g><rect x="116.6" y="161.5" width="30" height="30" rx="7" ry="9" fill="#e6eef0" stroke="#9bb3bb" stroke-width="1.3"/><text x="131.6" y="180.5" text-anchor="middle" font-size="10.5" font-weight="600" fill="#13343b">17</text></g>
<g><rect x="140.4" y="141.3" width="30" height="30" rx="7" ry="9" fill="#e6eef0" stroke="#9bb3bb" stroke-width="1.3"/><text x="155.4" y="160.3" text-anchor="middle" font-size="10.5" font-weight="600" fill="#13343b">16</text></g>
<g><rect x="173.2" y="122.5" width="23" height="32" rx="7" ry="9" fill="#eaf2f3" stroke="#9bb3bb" stroke-width="1.3"/><text x="184.7" y="142.5" text-anchor="middle" font-size="10.5" font-weight="600" fill="#13343b">15</text></g>
<g><rect x="207.1" y="107.7" width="23" height="32" rx="7" ry="9" fill="#eaf2f3" stroke="#9bb3bb" stroke-width="1.3"/><text x="218.6" y="127.7" text-anchor="middle" font-size="10.5" font-weight="600" fill="#13343b">14</text></g>
<g><rect x="246.2" y="94.3" width="20" height="36" rx="7" ry="9" fill="#eef5f6" stroke="#9bb3bb" stroke-width="1.3"/><text x="256.2" y="116.3" text-anchor="middle" font-size="10.5" font-weight="600" fill="#13343b">13</text></g>
<g><rect x="287.6" y="88.5" width="18" height="32" rx="7" ry="9" fill="#f2f8f9" stroke="#9bb3bb" stroke-width="1.3"/><text x="296.6" y="108.5" text-anchor="middle" font-size="10.5" font-weight="600" fill="#13343b">12</text></g>
<g><rect x="329.7" y="84.5" width="18" height="32" rx="7" ry="9" fill="#f2f8f9" stroke="#9bb3bb" stroke-width="1.3"/><text x="338.7" y="104.5" text-anchor="middle" font-size="10.5" font-weight="600" fill="#13343b">11</text></g>
<g><rect x="372.3" y="84.5" width="18" height="32" rx="7" ry="9" fill="#f2f8f9" stroke="#9bb3bb" stroke-width="1.3"/><text x="381.3" y="104.5" text-anchor="middle" font-size="10.5" font-weight="600" fill="#13343b">21</text></g>
<g><rect x="414.4" y="88.5" width="18" height="32" rx="7" ry="9" fill="#f2f8f9" stroke="#9bb3bb" stroke-width="1.3"/><text x="423.4" y="108.5" text-anchor="middle" font-size="10.5" font-weight="600" fill="#13343b">22</text></g>
<g><rect x="453.8" y="94.3" width="20" height="36" rx="7" ry="9" fill="#eef5f6" stroke="#9bb3bb" stroke-width="1.3"/><text x="463.8" y="116.3" text-anchor="middle" font-size="10.5" font-weight="600" fill="#13343b">23</text></g>
<g><rect x="489.9" y="107.7" width="23" height="32" rx="7" ry="9" fill="#eaf2f3" stroke="#9bb3bb" stroke-width="1.3"/><text x="501.4" y="127.7" text-anchor="middle" font-size="10.5" font-weight="600" fill="#13343b">24</text></g>
<g><rect x="523.8" y="122.5" width="23" height="32" rx="7" ry="9" fill="#eaf2f3" stroke="#9bb3bb" stroke-width="1.3"/><text x="535.3" y="142.5" text-anchor="middle" font-size="10.5" font-weight="600" fill="#13343b">25</text></g>
<g><rect x="549.6" y="141.3" width="30" height="30" rx="7" ry="9" fill="#e6eef0" stroke="#9bb3bb" stroke-width="1.3"/><text x="564.6" y="160.3" text-anchor="middle" font-size="10.5" font-weight="600" fill="#13343b">26</text></g>
<g><rect x="573.4" y="161.5" width="30" height="30" rx="7" ry="9" fill="#e6eef0" stroke="#9bb3bb" stroke-width="1.3"/><text x="588.4" y="180.5" text-anchor="middle" font-size="10.5" font-weight="600" fill="#13343b">27</text></g>
<g><rect x="591.2" y="183.7" width="30" height="30" rx="7" ry="9" fill="#e6eef0" stroke="#9bb3bb" stroke-width="1.3"/><text x="606.2" y="202.7" text-anchor="middle" font-size="10.5" font-weight="600" fill="#13343b">28</text></g>
<g><rect x="98.8" y="286.3" width="30" height="30" rx="7" ry="9" fill="#e6eef0" stroke="#9bb3bb" stroke-width="1.3"/><text x="113.8" y="305.3" text-anchor="middle" font-size="10.5" font-weight="600" fill="#13343b">48</text></g>
<g><rect x="116.6" y="308.5" width="30" height="30" rx="7" ry="9" fill="#e6eef0" stroke="#9bb3bb" stroke-width="1.3"/><text x="131.6" y="327.5" text-anchor="middle" font-size="10.5" font-weight="600" fill="#13343b">47</text></g>
<g><rect x="140.4" y="328.7" width="30" height="30" rx="7" ry="9" fill="#e6eef0" stroke="#9bb3bb" stroke-width="1.3"/><text x="155.4" y="347.7" text-anchor="middle" font-size="10.5" font-weight="600" fill="#13343b">46</text></g>
<g><rect x="173.2" y="345.5" width="23" height="32" rx="7" ry="9" fill="#eaf2f3" stroke="#9bb3bb" stroke-width="1.3"/><text x="184.7" y="365.5" text-anchor="middle" font-size="10.5" font-weight="600" fill="#13343b">45</text></g>
<g><rect x="207.1" y="360.3" width="23" height="32" rx="7" ry="9" fill="#eaf2f3" stroke="#9bb3bb" stroke-width="1.3"/><text x="218.6" y="380.3" text-anchor="middle" font-size="10.5" font-weight="600" fill="#13343b">44</text></g>
<g><rect x="246.2" y="369.7" width="20" height="36" rx="7" ry="9" fill="#eef5f6" stroke="#9bb3bb" stroke-width="1.3"/><text x="256.2" y="391.7" text-anchor="middle" font-size="10.5" font-weight="600" fill="#13343b">43</text></g>
<g><rect x="287.6" y="379.5" width="18" height="32" rx="7" ry="9" fill="#f2f8f9" stroke="#9bb3bb" stroke-width="1.3"/><text x="296.6" y="399.5" text-anchor="middle" font-size="10.5" font-weight="600" fill="#13343b">42</text></g>
<g><rect x="329.7" y="383.5" width="18" height="32" rx="7" ry="9" fill="#f2f8f9" stroke="#9bb3bb" stroke-width="1.3"/><text x="338.7" y="403.5" text-anchor="middle" font-size="10.5" font-weight="600" fill="#13343b">41</text></g>
<g><rect x="372.3" y="383.5" width="18" height="32" rx="7" ry="9" fill="#f2f8f9" stroke="#9bb3bb" stroke-width="1.3"/><text x="381.3" y="403.5" text-anchor="middle" font-size="10.5" font-weight="600" fill="#13343b">31</text></g>
<g><rect x="414.4" y="379.5" width="18" height="32" rx="7" ry="9" fill="#f2f8f9" stroke="#9bb3bb" stroke-width="1.3"/><text x="423.4" y="399.5" text-anchor="middle" font-size="10.5" font-weight="600" fill="#13343b">32</text></g>
<g><rect x="453.8" y="369.7" width="20" height="36" rx="7" ry="9" fill="#eef5f6" stroke="#9bb3bb" stroke-width="1.3"/><text x="463.8" y="391.7" text-anchor="middle" font-size="10.5" font-weight="600" fill="#13343b">33</text></g>
<g><rect x="489.9" y="360.3" width="23" height="32" rx="7" ry="9" fill="#eaf2f3" stroke="#9bb3bb" stroke-width="1.3"/><text x="501.4" y="380.3" text-anchor="middle" font-size="10.5" font-weight="600" fill="#13343b">34</text></g>
<g><rect x="523.8" y="345.5" width="23" height="32" rx="7" ry="9" fill="#eaf2f3" stroke="#9bb3bb" stroke-width="1.3"/><text x="535.3" y="365.5" text-anchor="middle" font-size="10.5" font-weight="600" fill="#13343b">35</text></g>
<g><rect x="549.6" y="328.7" width="30" height="30" rx="7" ry="9" fill="#e6eef0" stroke="#9bb3bb" stroke-width="1.3"/><text x="564.6" y="347.7" text-anchor="middle" font-size="10.5" font-weight="600" fill="#13343b">36</text></g>
<g><rect x="573.4" y="308.5" width="30" height="30" rx="7" ry="9" fill="#e6eef0" stroke="#9bb3bb" stroke-width="1.3"/><text x="588.4" y="327.5" text-anchor="middle" font-size="10.5" font-weight="600" fill="#13343b">37</text></g>
<g><rect x="591.2" y="286.3" width="30" height="30" rx="7" ry="9" fill="#e6eef0" stroke="#9bb3bb" stroke-width="1.3"/><text x="606.2" y="305.3" text-anchor="middle" font-size="10.5" font-weight="600" fill="#13343b">38</text></g>
<text x="360.0" y="508" text-anchor="middle" font-size="11" fill="#60707a">Each tooth: first digit = quadrant, second = position from the midline (1 incisor &#8594; 8 molar).</text>
</svg>