<svg xmlns="http://www.w3.org/2000/svg" viewBox="0 0 720 540" font-family="system-ui,Segoe UI,Roboto,sans-serif" role="img" aria-label="Mouth diagram with Universal (1-32) and FDI tooth numbers">
<rect width="100%" height="100%" fill="#ffffff"/>
<text x="360.0" y="28" text-anchor="middle" font-size="17" font-weight="700" fill="#0f3d3a">Tooth numbering — Universal (1–32) &amp; FDI</text>
<ellipse cx="360.0" cy="280" rx="320" ry="205" fill="#f5cdc6" stroke="#d99b90" stroke-width="2"/>
<ellipse cx="360.0" cy="290" rx="270" ry="160" fill="#7a2e2e"/>
<ellipse cx="360.0" cy="375" rx="170" ry="78" fill="#c4636b"/>
<g><rect x="97.8" y="186.7" width="32" height="34" rx="7" ry="9" fill="#e6eef0" stroke="#9bb3bb" stroke-width="1.3"/><text x="113.8" y="202.7" text-anchor="middle" font-size="12" font-weight="700" fill="#13343b">1</text><text x="113.8" y="214.7" text-anchor="middle" font-size="8" fill="#6b8088">18</text></g>
<g><rect x="115.6" y="164.5" width="32" height="34" rx="7" ry="9" fill="#e6eef0" stroke="#9bb3bb" stroke-width="1.3"/><text x="131.6" y="180.5" text-anchor="middle" font-size="12" font-weight="700" fill="#13343b">2</text><text x="131.6" y="192.5" text-anchor="middle" font-size="8" fill="#6b8088">17</text></g>
<g><rect x="139.4" y="144.3" width="32" height="34" rx="7" ry="9" fill="#e6eef0" stroke="#9bb3bb" stroke-width="1.3"/><text x="155.4" y="160.3" text-anchor="middle" font-size="12" font-weight="700" fill="#13343b">3</text><text x="155.4" y="172.3" text-anchor="middle" font-size="8" fill="#6b8088">16</text></g>
<g><rect x="172.2" y="125.5" width="25" height="36" rx="7" ry="9" fill="#eaf2f3" stroke="#9bb3bb" stroke-width="1.3"/><text x="184.7" y="142.5" text-anchor="middle" font-size="12" font-weight="700" fill="#13343b">4</text><text x="184.7" y="154.5" text-anchor="middle" font-size="8" fill="#6b8088">15</text></g>
<g><rect x="206.1" y="110.7" width="25" height="36" rx="7" ry="9" fill="#eaf2f3" stroke="#9bb3bb" stroke-width="1.3"/><text x="218.6" y="127.7" text-anchor="middle" font-size="12" font-weight="700" fill="#13343b">5</text><text x="218.6" y="139.7" text-anchor="middle" font-size="8" fill="#6b8088">14</text></g>
<g><rect x="245.2" y="97.3" width="22" height="40" rx="7" ry="9" fill="#eef5f6" stroke="#9bb3bb" stroke-width="1.3"/><text x="256.2" y="116.3" text-anchor="middle" font-size="12" font-weight="700" fill="#13343b">6</text><text x="256.2" y="128.3" text-anchor="middle" font-size="8" fill="#6b8088">13</text></g>
<g><rect x="286.6" y="91.5" width="20" height="36" rx="7" ry="9" fill="#f2f8f9" stroke="#9bb3bb" stroke-width="1.3"/><text x="296.6" y="108.5" text-anchor="middle" font-size="12" font-weight="700" fill="#13343b">7</text><text x="296.6" y="120.5" text-anchor="middle" font-size="8" fill="#6b8088">12</text></g>
<g><rect x="328.7" y="87.5" width="20" height="36" rx="7" ry="9" fill="#f2f8f9" stroke="#9bb3bb" stroke-width="1.3"/><text x="338.7" y="104.5" text-anchor="middle" font-size="12" font-weight="700" fill="#13343b">8</text><text x="338.7" y="116.5" text-anchor="middle" font-size="8" fill="#6b8088">11</text></g>
<g><rect x="371.3" y="87.5" width="20" height="36" rx="7" ry="9" fill="#f2f8f9" stroke="#9bb3bb" stroke-width="1.3"/><text x="381.3" y="104.5" text-anchor="middle" font-size="12" font-weight="700" fill="#13343b">9</text><text x="381.3" y="116.5" text-anchor="middle" font-size="8" fill="#6b8088">21</text></g>
<g><rect x="413.4" y="91.5" width="20" height="36" rx="7" ry="9" fill="#f2f8f9" stroke="#9bb3bb" stroke-width="1.3"/><text x="423.4" y="108.5" text-anchor="middle" font-size="12" font-weight="700" fill="#13343b">10</text><text x="423.4" y="120.5" text-anchor="middle" font-size="8" fill="#6b8088">22</text></g>
<g><rect x="452.8" y="97.3" width="22" height="40" rx="7" ry="9" fill="#eef5f6" stroke="#9bb3bb" stroke-width="1.3"/><text x="463.8" y="116.3" text-anchor="middle" font-size="12" font-weight="700" fill="#13343b">11</text><text x="463.8" y="128.3" text-anchor="middle" font-size="8" fill="#6b8088">23</text></g>
<g><rect x="488.9" y="110.7" width="25" height="36" rx="7" ry="9" fill="#eaf2f3" stroke="#9bb3bb" stroke-width="1.3"/><text x="501.4" y="127.7" text-anchor="middle" font-size="12" font-weight="700" fill="#13343b">12</text><text x="501.4" y="139.7" text-anchor="middle" font-size="8" fill="#6b8088">24</text></g>
<g><rect x="522.8" y="125.5" width="25" height="36" rx="7" ry="9" fill="#eaf2f3" stroke="#9bb3bb" stroke-width="1.3"/><text x="535.3" y="142.5" text-anchor="middle" font-size="12" font-weight="700" fill="#13343b">13</text><text x="535.3" y="154.5" text-anchor="middle" font-size="8" fill="#6b8088">25</text></g>
<g><rect x="548.6" y="144.3" width="32" height="34" rx="7" ry="9" fill="#e6eef0" stroke="#9bb3bb" stroke-width="1.3"/><text x="564.6" y="160.3" text-anchor="middle" font-size="12" font-weight="700" fill="#13343b">14</text><text x="564.6" y="172.3" text-anchor="middle" font-size="8" fill="#6b8088">26</text></g>
<g><rect x="572.4" y="164.5" width="32" height="34" rx="7" ry="9" fill="#e6eef0" stroke="#9bb3bb" stroke-width="1.3"/><text x="588.4" y="180.5" text-anchor="middle" font-size="12" font-weight="700" fill="#13343b">15</text><text x="588.4" y="192.5" text-anchor="middle" font-size="8" fill="#6b8088">27</text></g>
<g><rect x="590.2" y="186.7" width="32" height="34" rx="7" ry="9" fill="#e6eef0" stroke="#9bb3bb" stroke-width="1.3"/><text x="606.2" y="202.7" text-anchor="middle" font-size="12" font-weight="700" fill="#13343b">16</text><text x="606.2" y="214.7" text-anchor="middle" font-size="8" fill="#6b8088">28</text></g>
<g><rect x="97.8" y="289.3" width="32" height="34" rx="7" ry="9" fill="#e6eef0" stroke="#9bb3bb" stroke-width="1.3"/><text x="113.8" y="305.3" text-anchor="middle" font-size="12" font-weight="700" fill="#13343b">32</text><text x="113.8" y="317.3" text-anchor="middle" font-size="8" fill="#6b8088">48</text></g>
<g><rect x="115.6" y="311.5" width="32" height="34" rx="7" ry="9" fill="#e6eef0" stroke="#9bb3bb" stroke-width="1.3"/><text x="131.6" y="327.5" text-anchor="middle" font-size="12" font-weight="700" fill="#13343b">31</text><text x="131.6" y="339.5" text-anchor="middle" font-size="8" fill="#6b8088">47</text></g>
<g><rect x="139.4" y="331.7" width="32" height="34" rx="7" ry="9" fill="#e6eef0" stroke="#9bb3bb" stroke-width="1.3"/><text x="155.4" y="347.7" text-anchor="middle" font-size="12" font-weight="700" fill="#13343b">30</text><text x="155.4" y="359.7" text-anchor="middle" font-size="8" fill="#6b8088">46</text></g>
<g><rect x="172.2" y="348.5" width="25" height="36" rx="7" ry="9" fill="#eaf2f3" stroke="#9bb3bb" stroke-width="1.3"/><text x="184.7" y="365.5" text-anchor="middle" font-size="12" font-weight="700" fill="#13343b">29</text><text x="184.7" y="377.5" text-anchor="middle" font-size="8" fill="#6b8088">45</text></g>
<g><rect x="206.1" y="363.3" width="25" height="36" rx="7" ry="9" fill="#eaf2f3" stroke="#9bb3bb" stroke-width="1.3"/><text x="218.6" y="380.3" text-anchor="middle" font-size="12" font-weight="700" fill="#13343b">28</text><text x="218.6" y="392.3" text-anchor="middle" font-size="8" fill="#6b8088">44</text></g>
<g><rect x="245.2" y="372.7" width="22" height="40" rx="7" ry="9" fill="#eef5f6" stroke="#9bb3bb" stroke-width="1.3"/><text x="256.2" y="391.7" text-anchor="middle" font-size="12" font-weight="700" fill="#13343b">27</text><text x="256.2" y="403.7" text-anchor="middle" font-size="8" fill="#6b8088">43</text></g>
<g><rect x="286.6" y="382.5" width="20" height="36" rx="7" ry="9" fill="#f2f8f9" stroke="#9bb3bb" stroke-width="1.3"/><text x="296.6" y="399.5" text-anchor="middle" font-size="12" font-weight="700" fill="#13343b">26</text><text x="296.6" y="411.5" text-anchor="middle" font-size="8" fill="#6b8088">42</text></g>
<g><rect x="328.7" y="386.5" width="20" height="36" rx="7" ry="9" fill="#f2f8f9" stroke="#9bb3bb" stroke-width="1.3"/><text x="338.7" y="403.5" text-anchor="middle" font-size="12" font-weight="700" fill="#13343b">25</text><text x="338.7" y="415.5" text-anchor="middle" font-size="8" fill="#6b8088">41</text></g>
<g><rect x="371.3" y="386.5" width="20" height="36" rx="7" ry="9" fill="#f2f8f9" stroke="#9bb3bb" stroke-width="1.3"/><text x="381.3" y="403.5" text-anchor="middle" font-size="12" font-weight="700" fill="#13343b">24</text><text x="381.3" y="415.5" text-anchor="middle" font-size="8" fill="#6b8088">31</text></g>
<g><rect x="413.4" y="382.5" width="20" height="36" rx="7" ry="9" fill="#f2f8f9" stroke="#9bb3bb" stroke-width="1.3"/><text x="423.4" y="399.5" text-anchor="middle" font-size="12" font-weight="700" fill="#13343b">23</text><text x="423.4" y="411.5" text-anchor="middle" font-size="8" fill="#6b8088">32</text></g>
<g><rect x="452.8" y="372.7" width="22" height="40" rx="7" ry="9" fill="#eef5f6" stroke="#9bb3bb" stroke-width="1.3"/><text x="463.8" y="391.7" text-anchor="middle" font-size="12" font-weight="700" fill="#13343b">22</text><text x="463.8" y="403.7" text-anchor="middle" font-size="8" fill="#6b8088">33</text></g>
<g><rect x="488.9" y="363.3" width="25" height="36" rx="7" ry="9" fill="#eaf2f3" stroke="#9bb3bb" stroke-width="1.3"/><text x="501.4" y="380.3" text-anchor="middle" font-size="12" font-weight="700" fill="#13343b">21</text><text x="501.4" y="392.3" text-anchor="middle" font-size="8" fill="#6b8088">34</text></g>
<g><rect x="522.8" y="348.5" width="25" height="36" rx="7" ry="9" fill="#eaf2f3" stroke="#9bb3bb" stroke-width="1.3"/><text x="535.3" y="365.5" text-anchor="middle" font-size="12" font-weight="700" fill="#13343b">20</text><text x="535.3" y="377.5" text-anchor="middle" font-size="8" fill="#6b8088">35</text></g>
<g><rect x="548.6" y="331.7" width="32" height="34" rx="7" ry="9" fill="#e6eef0" stroke="#9bb3bb" stroke-width="1.3"/><text x="564.6" y="347.7" text-anchor="middle" font-size="12" font-weight="700" fill="#13343b">19</text><text x="564.6" y="359.7" text-anchor="middle" font-size="8" fill="#6b8088">36</text></g>
<g><rect x="572.4" y="311.5" width="32" height="34" rx="7" ry="9" fill="#e6eef0" stroke="#9bb3bb" stroke-width="1.3"/><text x="588.4" y="327.5" text-anchor="middle" font-size="12" font-weight="700" fill="#13343b">18</text><text x="588.4" y="339.5" text-anchor="middle" font-size="8" fill="#6b8088">37</text></g>
<g><rect x="590.2" y="289.3" width="32" height="34" rx="7" ry="9" fill="#e6eef0" stroke="#9bb3bb" stroke-width="1.3"/><text x="606.2" y="305.3" text-anchor="middle" font-size="12" font-weight="700" fill="#13343b">17</text><text x="606.2" y="317.3" text-anchor="middle" font-size="8" fill="#6b8088">38</text></g>
<text x="360.0" y="514" text-anchor="middle" font-size="11" fill="#13343b">Large = Universal (US 1–32). Small = FDI (used by this app).</text>
<text x="360.0" y="529" text-anchor="middle" font-size="10.5" fill="#60707a">Patient perspective: upper right is on the left. FDI: 1st digit = quadrant, 2nd = position from midline.</text>
</svg>